<svg xmlns="http://www.w3.org/2000/svg" viewBox="0 0 512 512">
  <rect width="512" height="512" fill="#0a0a0a"/>
  <rect x="32" y="32" width="448" height="448" fill="none" stroke="#fbbf24" stroke-width="24"/>
  <g fill="#fbbf24">
    <rect x="120" y="200" width="70" height="200"/>
    <rect x="210" y="150" width="90" height="250"/>
    <rect x="320" y="220" width="70" height="180"/>
  </g>
  <g fill="#0a0a0a">
    <rect x="140" y="240" width="14" height="14"/>
    <rect x="160" y="240" width="14" height="14"/>
    <rect x="140" y="280" width="14" height="14"/>
    <rect x="160" y="280" width="14" height="14"/>
    <rect x="140" y="320" width="14" height="14"/>
    <rect x="160" y="320" width="14" height="14"/>
    <rect x="232" y="190" width="14" height="14"/>
    <rect x="252" y="190" width="14" height="14"/>
    <rect x="272" y="190" width="14" height="14"/>
    <rect x="232" y="230" width="14" height="14"/>
    <rect x="252" y="230" width="14" height="14"/>
    <rect x="272" y="230" width="14" height="14"/>
    <rect x="232" y="270" width="14" height="14"/>
    <rect x="252" y="270" width="14" height="14"/>
    <rect x="272" y="270" width="14" height="14"/>
    <rect x="340" y="260" width="14" height="14"/>
    <rect x="360" y="260" width="14" height="14"/>
    <rect x="340" y="300" width="14" height="14"/>
    <rect x="360" y="300" width="14" height="14"/>
  </g>
</svg>
